<svg width="40" height="40" viewBox="0 0 40 40" xmlns="http://www.w3.org/2000/svg"><path d="M15.643 31.285c8.64 0 15.642-7.003 15.642-15.642C31.285 7.003 24.282 0 15.643 0 7.003 0 0 7.003 0 15.643s7.003 15.642 15.643 15.642zm0-3.91c6.48 0 11.73-5.253 11.73-11.732 0-6.48-5.25-11.732-11.73-11.732S3.91 9.164 3.91 15.644s5.253 11.73 11.733 11.73zm12.605 4.192a2.338 2.338 0 0 1 .003-3.316 2.346 2.346 0 0 1 3.317-.002l7.75 7.75c.913.914.918 2.392-.005 3.314a2.346 2.346 0 0 1-3.315.004l-7.75-7.75zm-9.92-25.05c-5.26-1.213-10.51 2.067-11.725 7.328a1.173 1.173 0 1 0 2.286.528 7.43 7.43 0 0 1 8.91-5.57 1.173 1.173 0 0 0 .528-2.285z" fill="#FFF" fill-rule="evenodd"/></svg>
