<?xml version="1.0" encoding="UTF-8" standalone="no"?><!DOCTYPE svg PUBLIC "-//W3C//DTD SVG 1.1//EN" "http://www.w3.org/Graphics/SVG/1.1/DTD/svg11.dtd"><svg width="100%" height="100%" viewBox="0 0 420 420" version="1.1" xmlns="http://www.w3.org/2000/svg" xmlns:xlink="http://www.w3.org/1999/xlink" xml:space="preserve" xmlns:serif="http://www.serif.com/" style="fill-rule:evenodd;clip-rule:evenodd;stroke-linecap:round;stroke-linejoin:round;stroke-miterlimit:1.5;"><rect id="logo-demiblack-fat-noBG" x="0" y="0" width="420" height="420" style="fill:none;"/><g><g><path d="M117.095,169.009c33.616,-33.616 88.199,-33.616 121.815,0c33.616,33.616 33.616,88.2 0,121.815c-33.616,33.616 -88.199,33.616 -121.815,0c-33.616,-33.615 -33.616,-88.199 0,-121.815Z" style="fill:none;stroke:#ff0579;stroke-width:40px;"/><path d="M245.228,297.142l82.889,82.89" style="fill:none;stroke:#ff0579;stroke-width:50px;"/></g><g><path d="M187.949,186.358c22.656,6.071 36.121,29.394 30.05,52.05c-6.07,22.656 -29.393,36.121 -52.049,30.05c-22.656,-6.07 -36.121,-29.393 -30.051,-52.049c6.071,-22.656 29.394,-36.121 52.05,-30.051Z"/><g><path d="M199.238,233.979l49.672,-185.38l55.328,43.744" style="fill:none;stroke:#000;stroke-width:38px;"/></g></g></g></svg>