<?xml version="1.0" encoding="UTF-8" standalone="no"?><!DOCTYPE svg PUBLIC "-//W3C//DTD SVG 1.1//EN" "http://www.w3.org/Graphics/SVG/1.1/DTD/svg11.dtd"><svg width="100%" height="100%" viewBox="0 0 800 800" version="1.1" xmlns="http://www.w3.org/2000/svg" xmlns:xlink="http://www.w3.org/1999/xlink" xml:space="preserve" xmlns:serif="http://www.serif.com/" style="fill-rule:evenodd;clip-rule:evenodd;stroke-linecap:round;stroke-linejoin:round;stroke-miterlimit:1.5;"><rect id="logo-colors-noBG" x="0" y="0" width="800" height="800" style="fill:none;"/><g><g><path d="M256.548,338.229c51.905,-51.905 136.186,-51.905 188.091,0c51.905,51.905 51.905,136.186 0,188.091c-51.905,51.905 -136.186,51.905 -188.091,0c-51.905,-51.905 -51.905,-136.186 0,-188.091Z" style="fill:none;stroke:#03c4ff;stroke-width:40px;"/><path d="M454.394,536.075l127.986,127.986" style="fill:none;stroke:#03c4ff;stroke-width:50px;"/></g><g><path d="M362.887,386.393c25.323,6.785 40.373,32.853 33.588,58.175c-6.785,25.323 -32.853,40.373 -58.175,33.588c-25.323,-6.785 -40.373,-32.853 -33.588,-58.175c6.785,-25.323 32.853,-40.373 58.175,-33.588Z" style="fill:none;stroke:#f719ff;stroke-width:50px;"/><g><path d="M396.475,444.568l76.697,-286.238l85.43,67.544" style="fill:none;stroke:#f719ff;stroke-width:50px;"/></g></g></g></svg>