<?xml version="1.0" encoding="UTF-8" standalone="no"?><!DOCTYPE svg PUBLIC "-//W3C//DTD SVG 1.1//EN" "http://www.w3.org/Graphics/SVG/1.1/DTD/svg11.dtd"><svg width="100%" height="100%" viewBox="0 0 421 421" version="1.1" xmlns="http://www.w3.org/2000/svg" xmlns:xlink="http://www.w3.org/1999/xlink" xml:space="preserve" xmlns:serif="http://www.serif.com/" style="fill-rule:evenodd;clip-rule:evenodd;stroke-linecap:round;stroke-linejoin:round;stroke-miterlimit:1.5;"><rect id="logo-colors-fat-whiteBG" x="0.283" y="0.5" width="420" height="420" style="fill:none;"/><path d="M417.783,106.75c0,-57.261 -46.489,-103.75 -103.75,-103.75l-207.5,0c-57.261,0 -103.75,46.489 -103.75,103.75l0,207.5c0,57.261 46.489,103.75 103.75,103.75l207.5,0c57.261,0 103.75,-46.489 103.75,-103.75l0,-207.5Z" style="fill:#fff;"/><g><g><path d="M117.378,169.509c33.615,-33.616 88.199,-33.616 121.815,0c33.616,33.616 33.616,88.2 0,121.815c-33.616,33.616 -88.2,33.616 -121.815,0c-33.616,-33.615 -33.616,-88.199 0,-121.815Z" style="fill:none;stroke:#03c4ff;stroke-width:40px;"/><path d="M245.511,297.642l82.889,82.89" style="fill:none;stroke:#03c4ff;stroke-width:50px;"/></g><g><path d="M186.247,200.702c16.4,4.394 26.147,21.277 21.753,37.677c-4.394,16.4 -21.277,26.147 -37.677,21.753c-16.4,-4.395 -26.147,-21.277 -21.753,-37.677c4.395,-16.4 21.277,-26.147 37.677,-21.753Z" style="fill:none;stroke:#f719ff;stroke-width:50px;"/><g><path d="M208,238.379l49.672,-185.38l55.328,43.744" style="fill:none;stroke:#f719ff;stroke-width:50px;"/></g></g></g></svg>